<?xml version="1.0" encoding="utf-8"?>
<!-- Generator: Adobe Illustrator 22.1.0, SVG Export Plug-In . SVG Version: 6.00 Build 0)  -->
<svg version="1.1" id="Layer_1" xmlns="http://www.w3.org/2000/svg" xmlns:xlink="http://www.w3.org/1999/xlink" x="0px" y="0px"
	 viewBox="0 0 512 144" style="enable-background:new 0 0 512 144;" xml:space="preserve">
<style type="text/css">
	.st0{fill:#1976D2;}
</style>
<g>
	<path class="st0" d="M470.2,132.4c0,4.3,0,7.8,0,11.6c-10.7,0-21.3,0-32.4,0c0-3.5,0-7.1,0-11.1c2.9-0.2,6-0.4,9.2-0.6
		c0-26.6,0-53,0-79.7c-3.2-0.2-6-0.3-9.3-0.5c0-3.7,0-7.3,0-11.3c6.9,0,13.8,0,21,0c0.3,1.8,0.6,3.5,0.8,5.3c4.7-2,8.9-4.4,13.4-5.5
		c19-4.5,35.6,7.1,38.5,26.5c3.2,21.3-5.9,38.7-23.2,44.3c-7.5,2.4-14.8,2.3-22.2-0.1c-2-0.7-4.1-1.2-6.5-1.8c0,7.8,0,15.1,0,22.9
		C463.1,132.4,466.3,132.4,470.2,132.4z M459.3,77.4c0,3.7,0,7.4,0,11.1c0,9.4,1.4,11.7,10.5,13.5c4.4,0.9,9.3,0.8,13.6-0.4
		c10.5-2.8,16.3-12.1,16.9-25.2c0.6-16.3-9.9-27.1-25.6-26.3c-10.2,0.5-15.4,5.8-15.4,15.7C459.3,69.6,459.3,73.5,459.3,77.4z"/>
	<path class="st0" d="M83.1,78.6c3.6,1.6,7,3.2,11,4.9c-6.4,15.5-17.8,24.9-33.3,28.4c-27.4,6.1-52-10.1-59-37.9
		C-5.3,45.5,9.3,16.1,35,8.5c17.9-5.3,34.2-1.9,48.6,10.4c2.3,1.9,5.7,2.5,9.3,4c0,2.6,0,6.2,0,10.1c-6.7,0.6-12.3,1.2-18.3-4.8
		c-15.4-15.4-41.9-11.8-54.1,6.2C7.1,54.3,11.7,82,30.3,94.7c14.3,9.8,38.5,7.7,49-10.1C80.5,82.7,81.7,80.9,83.1,78.6z"/>
	<path class="st0" d="M379.2,112c-1.5,0.1-2.8,0.2-4,0.2c-9,0-18,0-27.5,0c0-4,0-7.6,0-11.6c3-0.2,5.8-0.3,9.7-0.5
		c0-4.8,0-9.5,0-14.2c0-6.3,0.1-12.6,0-18.8c-0.3-13.6-10.9-20.7-23.6-15.8c-3.4,1.3-6.5,3.5-9.5,5.5c-1.1,0.7-1.7,2.2-2.2,3.5
		c-0.3,0.8-0.1,1.8-0.1,2.7c0,12.2,0,24.3,0,37c3.4,0.2,6.2,0.4,9.6,0.5c0,3.6,0,7.2,0,11.2c-10.3,0-20.7,0-31.4,0
		c0-3.6,0-7.2,0-11.1c3-0.2,5.9-0.3,9.2-0.5c0-15.7,0-31.3,0-47.6c-2.9-0.2-5.9-0.3-9.2-0.5c0-3.9,0-7.4,0-11.3c7,0,13.7,0,21,0
		c0.3,2.3,0.6,4.8,0.8,6.9c6-2.5,11.7-5.8,17.7-7.2c16.9-4.1,29.3,5.8,29.7,23.2c0.3,12,0.1,24,0.1,36.5c3.4,0.2,6.4,0.3,9.7,0.5
		C379.2,104.5,379.2,108.1,379.2,112z"/>
	<path class="st0" d="M195,70.4c2.8-17.8-7.5-22.3-23.2-19.8c-4.1,0.6-8,2.2-12.4,3.5c-1.1-2.2-2.1-4.5-3.5-7.3
		c12.6-6.8,25.3-10.1,38.8-4.6c9.5,3.8,12.4,12.1,12.6,21.6c0.2,12,0,23.9,0,36.3c2.7,0.2,5,0.4,7.5,0.6c0,3.9,0,7.5,0,11.3
		c-6.5,0-12.7,0-19.1,0c-0.2-2.3-0.4-4.4-0.6-6.3c-5.3,2.3-10.3,5.3-15.6,6.7c-12.8,3.3-25.7-4.5-28.1-16.6
		c-2.4-12.1,6.5-23.7,20.4-25.3C179.4,69.7,187.2,70.4,195,70.4z M195.5,78.9c-3.6,0-6.8-0.3-9.8,0.1c-5.6,0.6-11.4,0.8-16.7,2.4
		c-4.9,1.5-6.7,6-6.3,11.2c0.4,4.9,3.2,7.7,7.7,9.1c8.3,2.5,16,0.9,23-4.2c1-0.8,2-2.3,2-3.6C195.6,89,195.5,84.3,195.5,78.9z"/>
	<path class="st0" d="M230.1,102.6c0-3.3,0-6.8,0-10.7c3.9,0,7.9,0,12,0c4.6,9.8,13.7,13.9,23.6,9.3c3-1.4,6.3-5.3,6.6-8.3
		c0.2-2.6-2.9-6.9-5.7-8.3c-6.5-3.3-13.7-5.2-20.5-8c-6.5-2.7-12.1-6.4-13.2-14.3c-1.1-7.6,1.9-14.5,8.2-18.6
		c9.5-6.1,24.9-5.8,34.2,0.3c2.6,1.7,5.7,2.7,9.5,4.5c0,2.4,0,6.1,0,10.3c-3.3,0-6.4,0.2-9.5-0.1c-1.2-0.1-2.6-1-3.3-2
		c-4.8-7.1-17.8-9.4-24.7-4.4c-5.2,3.9-4.8,11,1.3,14c4.9,2.4,10.3,4,15.4,5.9c2.2,0.8,4.5,1.5,6.7,2.4c9.9,4.2,14.2,10.9,13.1,20.6
		c-0.9,8.1-7.8,14.9-17,16.7c-11,2.2-21.2,1.6-29.5-7.5C236.1,103.1,232.8,103.3,230.1,102.6z"/>
	<path class="st0" d="M128.6,5.2c0,31.8,0,63,0,94.9c3.5,0.2,6.7,0.3,10.3,0.5c0,3.7,0,7.3,0,11.3c-10.6,0-21.2,0-32.2,0
		c0-3.7,0-7.3,0-11.2c3.2-0.1,6.1-0.3,9.5-0.4c0-27.6,0-55.2,0-83.1c-3.1-0.2-6.2-0.3-9.5-0.5c0-3.9,0-7.5,0-11.3
		C114.1,5.2,121,5.2,128.6,5.2z"/>
	<path class="st0" d="M416.1,100.4c2.6,0,4.2,0,5.8,0c1.5,0,2.9,0,4.8,0c0,3.9,0,7.5,0,11.5c-10.6,0-21.2,0-32.2,0
		c0-3.5,0-7.1,0-11.3c3,0,6,0,9.5,0c0-16.2,0-31.8,0-48c-2.9-0.2-6-0.3-9.5-0.5c0-3.6,0-7.2,0-11.2c6.9,0,13.9,0,21.6,0
		C416.1,60.5,416.1,80,416.1,100.4z"/>
	<path class="st0" d="M418.9,14.7c0,4.4-4.2,8.7-8.4,8.7c-4.2,0-8.4-4.3-8.4-8.6c-0.1-4.3,4.2-8.6,8.4-8.7
		C414.7,6,418.9,10.4,418.9,14.7z"/>
</g>
</svg>
