<?xml version="1.0" encoding="utf-8"?>
<!-- Generator: Adobe Illustrator 22.1.0, SVG Export Plug-In . SVG Version: 6.00 Build 0)  -->
<svg version="1.1" id="Layer_1" xmlns="http://www.w3.org/2000/svg" xmlns:xlink="http://www.w3.org/1999/xlink" x="0px" y="0px"
	 viewBox="0 0 512 512" style="enable-background:new 0 0 512 512;" xml:space="preserve">
<style type="text/css">
	.st0{fill:#1976D2;}
</style>
<g>
	<path class="st0" d="M324,309.5c-8.2,4.4-15.5,10.4-25.5,10.1c-13.7-0.4-27.5-0.1-41.2-0.1c-4.6,0-4.6,0-4.6,4.7c0,1-0.1,2-0.2,3.6
		c-46.7-2.2-83.9-22.1-108.7-61.4c-29.4-46.6-30.3-95.7-2.4-143.3c24.5-41.6,62.7-62.4,111-65.3c0.1,1.3,0.2,2.2,0.3,3.2
		c0.1,4.4,0.1,4.4,4.6,4.4c11.7,0,23.5,0.4,35.2-0.1c8.1-0.4,15.1,2.2,22,5.6c2.5,1.2,4.9,2.6,7.3,4.6c-1,0-2,0-3,0
		c-20.7,0-41.3,0-62,0c-4.1,0-4.2,0.1-4.2,4.3c0,6.3-0.5,5.5,5.4,5.6c25.8,0,51.5,0,77.3,0.1c1.6,0,3.4,0.6,4.6,1.5
		c21.9,17.4,37,39.5,44.9,66.3c4.6,15.7,7.1,31.9,5.7,48.4c-3.3,39.2-19.3,71.9-50,96.9c-1,0.8-2.5,1.1-3.8,1.1
		c-26.6,0.1-53.2,0-79.7,0c-4.4,0-4.4,0-4.5,4.6c0,1-0.3,2.1,0.1,3c0.4,0.9,1.3,1.7,2.2,2.2c0.6,0.3,1.6,0.1,2.4,0.1
		c21.2,0,42.3,0,63.5,0C321.8,309.5,322.9,309.5,324,309.5z M318.8,235.1c15.1-0.1,24.9-5.7,32.1-16.1c3.8-5.5,3.7-5.8-2-8.7
		c-4.1-2-4.1-2.1-6.5,2.1c-9,16-30,16.3-40.7,2.7c-8.7-11-8.5-29.5,0.4-40.6c9.9-12.4,28-12.6,37.7-0.2c2,2.6,4.1,3,6.9,2.9
		c8-0.2,6.6,1.2,6.8-6.9c0.1-2.1-0.7-3.1-2.8-2.9c-2.4,0.3-3.9-0.9-5.4-2.5c-15.5-15.7-42.7-13.1-54.9,7.7
		c-7.8,13.3-8.3,27.6-1.5,41.7C295.5,227.8,306.4,234.6,318.8,235.1z M205.2,197.5c-14.4,0-28.9,0-43.3,0c-4.2,0-4.3,0.1-3.4,4.3
		c1,5,1.8,5.7,6.9,5.7c27.1,0,54.1,0,81.2,0c6.7,0,5.7,0.7,5.9-6c0.1-3-0.8-4-3.9-4C234.1,197.6,219.6,197.5,205.2,197.5z
		 M157.8,187.4c1.6,0.1,2.9,0.2,4.1,0.2c28.2,0,56.4,0,84.6,0c6.2,0,5.8,0.8,5.8-5.9c0-4.2,0-4.2-4.2-4.2c-27.3,0-54.6,0-81.8,0
		c-6.1,0-7.1,0.8-8,6.9C158.2,185.3,158.1,186.1,157.8,187.4z M168.7,167.4c1.3,0.1,2.6,0.3,3.8,0.3c24.5,0,49.1,0,73.6,0
		c6.5,0,5.9,1.2,6.1-6.2c0.1-3.2-1.1-3.8-4-3.8c-22.3,0.1-44.7,0.1-67,0.1C177,157.8,170.4,162.7,168.7,167.4z M336.1,289.6
		c0.2-0.4,0.4-0.7,0.6-1.1c-1.8-1.8-3.5-3.6-5.3-5.4c-2.5-2.6-5.4-3.5-9.1-3.4c-21.3,0.2-42.7,0.1-64,0.1c-6.3,0-5.6-0.7-5.7,5.6
		c0,4.2,0.1,4.3,4.2,4.3c25.3,0,50.7,0,76,0C334,289.6,335,289.6,336.1,289.6z M168.9,218.4c-0.1,0.3-0.3,0.6-0.4,0.9
		c2,1.9,4.1,3.8,6,5.7c2.1,2,4.6,3,7.6,2.9c5-0.2,10,0,15,0c17.1,0,34.3-0.1,51.4,0.1c2.8,0,3.9-0.9,3.6-3.7c-0.1-0.6,0-1.2,0-1.8
		c0-4.2,0-4.3-4.3-4.3c-25.1,0-50.1,0-75.2,0C171.5,218.3,170.2,218.4,168.9,218.4z M336.6,97.4c-0.1-0.3-0.2-0.6-0.3-0.9
		c-1.1-0.1-2.3-0.2-3.4-0.2c-24.9,0-49.7,0-74.6,0c-6.3,0-5.6-0.6-5.6,5.7c0,3.7,0.2,4,3.9,4c22.5,0,45.1,0,67.6-0.1
		c1.6,0,3.4-0.6,4.7-1.5C331.6,102.3,334,99.8,336.6,97.4z M200.5,238.4c0,0.4-0.1,0.8-0.1,1.2c6.5,1.9,12.8,4.2,19.4,5.5
		c8.1,1.6,16.4,2.3,24.6,3.5c7.7,1.1,7.9,0.8,8-6.9c0-2.8-0.8-3.7-3.6-3.6c-15,0.1-30.1,0.1-45.1,0.1
		C202.6,238.1,201.6,238.3,200.5,238.4z M200.6,146c0,0.3,0.1,0.6,0.1,0.9c1.2,0.1,2.4,0.4,3.6,0.4c13.5,0,27.1,0.1,40.6,0
		c8.4-0.1,7.3,1.5,7.4-7.9c0-1.8-0.7-2.6-2.5-2.5c-6.7,0.5-13.4,0.6-20,1.6c-6.7,1-13.3,2.7-19.8,4.3
		C206.8,143.6,203.7,144.9,200.6,146z M304.5,117.6c0-0.4-0.1-0.8-0.1-1.2c-1-0.1-2.1-0.2-3.1-0.2c-14.2,0-28.5,0-42.7,0
		c-6.3,0-5.9-0.9-5.9,6.1c0,4.1,0.1,4.3,4.3,4.2c11.1-0.2,22.1-1.7,32.9-4.4C294.7,120.9,299.6,119.1,304.5,117.6z M304.3,268.9
		c0-0.4,0.1-0.8,0.1-1.1c-3.8-1.1-7.5-2.3-11.3-3.4c-11.1-3.1-22.3-5.1-33.9-5.3c-7.3-0.1-6.4-1.1-6.6,6.5c-0.1,2.8,0.9,3.7,3.6,3.6
		c15.1-0.1,30.2,0,45.3-0.1C302.5,269.2,303.4,269,304.3,268.9z"/>
	<g>
		<path class="st0" d="M470.1,500.4c0,4.3,0,7.8,0,11.6c-10.7,0-21.3,0-32.4,0c0-3.5,0-7.1,0-11.1c2.9-0.2,6-0.4,9.2-0.6
			c0-26.6,0-53,0-79.7c-3.2-0.2-6-0.3-9.3-0.5c0-3.7,0-7.3,0-11.3c6.9,0,13.8,0,21,0c0.3,1.8,0.6,3.5,0.8,5.3
			c4.7-2,8.9-4.4,13.4-5.5c19-4.5,35.6,7.1,38.5,26.5c3.2,21.3-5.9,38.7-23.2,44.3c-7.5,2.4-14.8,2.3-22.2-0.1
			c-2-0.7-4.1-1.2-6.5-1.8c0,7.8,0,15.1,0,22.9C463,500.4,466.2,500.4,470.1,500.4z M459.2,445.4c0,3.7,0,7.4,0,11.1
			c0,9.4,1.4,11.7,10.5,13.5c4.4,0.9,9.3,0.8,13.6-0.4c10.5-2.8,16.3-12.1,16.9-25.2c0.6-16.3-9.9-27.1-25.6-26.3
			c-10.2,0.5-15.4,5.8-15.4,15.7C459.2,437.6,459.2,441.5,459.2,445.4z"/>
		<path class="st0" d="M83,446.6c3.6,1.6,7,3.2,11,4.9c-6.4,15.5-17.8,24.9-33.3,28.4c-27.4,6.1-52-10.1-59-37.9
			c-7.2-28.5,7.5-57.8,33.2-65.5c17.9-5.3,34.2-1.9,48.6,10.4c2.3,1.9,5.7,2.5,9.3,4c0,2.6,0,6.2,0,10.1c-6.7,0.6-12.3,1.2-18.3-4.8
			c-15.4-15.4-41.9-11.8-54.1,6.2C7,422.3,11.6,450,30.2,462.7c14.3,9.8,38.5,7.7,49-10.1C80.3,450.7,81.6,448.9,83,446.6z"/>
		<path class="st0" d="M379,480c-1.5,0.1-2.8,0.2-4,0.2c-9,0-18,0-27.5,0c0-4,0-7.6,0-11.6c3-0.2,5.8-0.3,9.7-0.5
			c0-4.8,0-9.5,0-14.2c0-6.3,0.1-12.6,0-18.8c-0.3-13.6-10.9-20.7-23.6-15.8c-3.4,1.3-6.5,3.5-9.5,5.5c-1.1,0.7-1.7,2.2-2.2,3.5
			c-0.3,0.8-0.1,1.8-0.1,2.7c0,12.2,0,24.3,0,37c3.4,0.2,6.2,0.4,9.6,0.5c0,3.6,0,7.2,0,11.2c-10.3,0-20.7,0-31.4,0
			c0-3.6,0-7.2,0-11.1c3-0.2,5.9-0.3,9.2-0.5c0-15.7,0-31.3,0-47.6c-2.9-0.2-5.9-0.3-9.2-0.5c0-3.9,0-7.4,0-11.3c7,0,13.7,0,21,0
			c0.3,2.3,0.6,4.8,0.8,6.9c6-2.5,11.7-5.8,17.7-7.2c16.9-4.1,29.3,5.8,29.7,23.2c0.3,12,0.1,24,0.1,36.5c3.4,0.2,6.4,0.3,9.7,0.5
			C379,472.5,379,476.1,379,480z"/>
		<path class="st0" d="M194.9,438.4c2.8-17.8-7.5-22.3-23.2-19.8c-4.1,0.6-8,2.2-12.4,3.5c-1.1-2.2-2.1-4.5-3.5-7.3
			c12.6-6.8,25.3-10.1,38.8-4.6c9.5,3.8,12.4,12.1,12.6,21.6c0.2,12,0,23.9,0,36.3c2.7,0.2,5,0.4,7.5,0.6c0,3.9,0,7.5,0,11.3
			c-6.5,0-12.7,0-19.1,0c-0.2-2.3-0.4-4.4-0.6-6.3c-5.3,2.3-10.3,5.3-15.6,6.7c-12.8,3.3-25.7-4.5-28.1-16.6
			c-2.4-12.1,6.5-23.7,20.4-25.3C179.3,437.7,187.1,438.4,194.9,438.4z M195.4,446.9c-3.6,0-6.8-0.3-9.8,0.1
			c-5.6,0.6-11.4,0.8-16.7,2.4c-4.9,1.5-6.7,6-6.3,11.2c0.4,4.9,3.2,7.7,7.7,9.1c8.3,2.5,16,0.9,23-4.2c1-0.8,2-2.3,2-3.6
			C195.5,457,195.4,452.3,195.4,446.9z"/>
		<path class="st0" d="M230,470.6c0-3.3,0-6.8,0-10.7c3.9,0,7.9,0,12,0c4.6,9.8,13.7,13.9,23.6,9.3c3-1.4,6.3-5.3,6.6-8.3
			c0.2-2.6-2.9-6.9-5.7-8.3c-6.5-3.3-13.7-5.2-20.5-8c-6.5-2.7-12.1-6.4-13.2-14.3c-1.1-7.6,1.9-14.5,8.2-18.6
			c9.5-6.1,24.9-5.8,34.2,0.3c2.6,1.7,5.7,2.7,9.5,4.5c0,2.4,0,6.1,0,10.3c-3.3,0-6.4,0.2-9.5-0.1c-1.2-0.1-2.6-1-3.3-2
			c-4.8-7.1-17.8-9.4-24.7-4.4c-5.2,3.9-4.8,11,1.3,14c4.9,2.4,10.3,4,15.4,5.9c2.2,0.8,4.5,1.5,6.7,2.4
			c9.9,4.2,14.2,10.9,13.1,20.6c-0.9,8.1-7.8,14.9-17,16.7c-11,2.2-21.2,1.6-29.5-7.5C236,471.1,232.7,471.3,230,470.6z"/>
		<path class="st0" d="M128.5,373.2c0,31.8,0,63,0,94.9c3.5,0.2,6.7,0.3,10.3,0.5c0,3.7,0,7.3,0,11.3c-10.6,0-21.2,0-32.2,0
			c0-3.8,0-7.3,0-11.2c3.2-0.1,6.1-0.3,9.5-0.4c0-27.6,0-55.2,0-83.1c-3.1-0.2-6.2-0.3-9.5-0.5c0-3.9,0-7.5,0-11.3
			C114,373.2,120.9,373.2,128.5,373.2z"/>
		<path class="st0" d="M416,468.4c2.6,0,4.2,0,5.8,0c1.5,0,2.9,0,4.8,0c0,3.9,0,7.5,0,11.5c-10.6,0-21.2,0-32.2,0
			c0-3.5,0-7.1,0-11.3c3,0,6,0,9.5,0c0-16.2,0-31.8,0-48c-2.9-0.2-6-0.3-9.5-0.5c0-3.6,0-7.2,0-11.2c6.9,0,13.9,0,21.6,0
			C416,428.5,416,448,416,468.4z"/>
		<path class="st0" d="M418.8,382.7c0,4.4-4.2,8.7-8.4,8.7c-4.2,0-8.4-4.3-8.4-8.6c-0.1-4.3,4.2-8.6,8.4-8.7
			C414.6,374,418.8,378.4,418.8,382.7z"/>
	</g>
</g>
</svg>
