<?xml version="1.0" encoding="utf-8"?>
<!-- Generator: Adobe Illustrator 22.1.0, SVG Export Plug-In . SVG Version: 6.00 Build 0)  -->
<svg version="1.1" id="Layer_1" xmlns="http://www.w3.org/2000/svg" xmlns:xlink="http://www.w3.org/1999/xlink" x="0px" y="0px"
	 viewBox="0 0 512 512" style="enable-background:new 0 0 512 512;" xml:space="preserve">
<style type="text/css">
	.st0{fill:#FFFFFF;}
</style>
<path class="st0" d="M384.9,477.1c-15.5,8.3-29.3,19.7-48.3,19.2c-26-0.7-52.1-0.2-78.2-0.2c-8.7,0-8.7,0-8.8,9
	c0,1.9-0.2,3.7-0.4,6.9C160.6,507.9,90.1,470,43,395.6c-55.8-88.3-57.4-181.6-4.5-271.7C85,45,157.6,5.6,249.2,0
	c0.2,2.5,0.5,4.3,0.5,6.1c0.2,8.4,0.2,8.4,8.7,8.4c22.2,0,44.5,0.8,66.7-0.3c15.4-0.7,28.6,4.1,41.8,10.6c4.7,2.4,9.4,4.9,13.9,8.7
	c-1.9,0-3.8,0-5.7,0c-39.2,0-78.3,0-117.5,0c-7.8,0-7.9,0.1-7.9,8.1c0,11.9-1,10.5,10.3,10.5c48.9,0,97.7,0,146.6,0.1
	c2.9,0,6.5,1,8.7,2.9c41.5,32.9,70.2,74.8,85.2,125.8c8.8,29.8,13.4,60.5,10.8,91.7C505,347,474.7,409,416.5,456.3
	c-1.8,1.5-4.8,2-7.2,2c-50.4,0.1-100.8,0.1-151.2,0.1c-8.4,0-8.4,0-8.4,8.7c0,1.9-0.5,4.1,0.2,5.7c0.7,1.7,2.5,3.2,4.1,4.1
	c1.2,0.6,3,0.1,4.5,0.1c40.1,0,80.3,0,120.4,0C380.9,477.1,382.9,477.1,384.9,477.1z M375.2,335.9c28.7-0.3,47.3-10.7,60.9-30.5
	c7.1-10.4,6.9-11.1-3.9-16.4c-7.7-3.8-7.9-3.9-12.3,4c-17.1,30.4-56.9,30.9-77.2,5.1c-16.5-20.9-16.1-56,0.7-76.9
	c18.8-23.5,53.2-23.9,71.6-0.4c3.8,4.8,7.8,5.7,13.1,5.5c15.1-0.5,12.5,2.2,12.9-13.2c0.1-3.9-1.3-6-5.3-5.4
	c-4.5,0.6-7.3-1.7-10.3-4.7c-29.5-29.7-80.9-24.9-104.1,14.6c-14.8,25.3-15.7,52.4-2.8,79.1C330.8,322.2,351.6,335,375.2,335.9z
	 M159.6,264.7c-27.4,0-54.8,0-82.1,0c-8,0-8.1,0.2-6.5,8.1c1.9,9.5,3.5,10.9,13,10.9c51.3,0,102.7,0,154,0
	c12.7,0,10.7,1.4,11.2-11.4c0.2-5.7-1.5-7.7-7.4-7.6C214.4,264.8,187,264.7,159.6,264.7z M69.9,245.5c3,0.2,5.4,0.4,7.8,0.5
	c53.4,0,106.9,0,160.3,0c11.8,0,11,1.6,11-11.1c0-7.9,0-8-7.9-8c-51.7,0-103.5,0-155.2,0c-11.6,0-13.4,1.6-15.2,13.1
	C70.6,241.5,70.3,243,69.9,245.5z M90.5,207.6c2.5,0.2,4.9,0.5,7.2,0.5c46.5,0,93.1,0.1,139.6,0c12.3,0,11.1,2.2,11.6-11.7
	c0.2-6.1-2-7.2-7.5-7.2c-42.4,0.2-84.7,0.1-127.1,0.1C106.1,189.3,93.6,198.6,90.5,207.6z M407.9,439.3c0.4-0.7,0.8-1.4,1.2-2.1
	c-3.3-3.4-6.7-6.8-10-10.3c-4.7-5-10.3-6.6-17.3-6.5c-40.5,0.4-80.9,0.1-121.4,0.2c-12,0-10.7-1.3-10.8,10.6c0,7.9,0.2,8.1,7.9,8.1
	c48.1,0,96.1,0,144.2,0C403.9,439.3,405.9,439.3,407.9,439.3z M90.9,304.3c-0.3,0.6-0.5,1.2-0.8,1.7c3.8,3.6,7.7,7.2,11.5,10.8
	c4,3.9,8.6,5.7,14.4,5.5c9.5-0.3,19-0.1,28.5-0.1c32.5,0,65-0.1,97.5,0.1c5.3,0,7.4-1.8,6.8-7c-0.1-1.1,0-2.3,0-3.4
	c0-8,0-8.1-8.1-8.1c-47.5,0-95,0-142.6,0C95.7,304,93.3,304.2,90.9,304.3z M408.8,74.8c-0.2-0.6-0.4-1.2-0.6-1.8
	c-2.2-0.1-4.4-0.3-6.5-0.3c-47.1,0-94.3,0-141.4,0c-11.9,0-10.6-1.2-10.6,10.8c0,7.1,0.5,7.6,7.4,7.6c42.8,0,85.5,0.1,128.3-0.1
	c3,0,6.5-1.1,8.9-2.9C399.4,84,404,79.3,408.8,74.8z M150.8,342.2c-0.1,0.8-0.1,1.5-0.2,2.3c12.3,3.6,24.4,8,36.8,10.5
	c15.4,3,31,4.4,46.6,6.6c14.6,2,15,1.5,15.1-13.1c0-5.2-1.6-6.9-6.9-6.9c-28.5,0.2-57,0.1-85.5,0.1
	C154.8,341.6,152.8,342,150.8,342.2z M150.9,166.9c0.1,0.6,0.2,1.2,0.2,1.7c2.3,0.3,4.6,0.7,6.9,0.7c25.7,0.1,51.3,0.1,77,0
	c16-0.1,13.9,2.9,14.1-15c0-3.5-1.4-4.9-4.8-4.7c-12.6,1-25.4,1.2-37.9,3.1c-12.7,1.9-25.2,5-37.6,8.1
	C162.7,162.4,156.9,164.9,150.9,166.9z M348,113.1c-0.1-0.7-0.2-1.5-0.3-2.2c-2-0.1-4-0.3-5.9-0.3c-27,0-54-0.1-80.9,0
	c-12,0-11.1-1.7-11.1,11.5c0,7.7,0.3,8.1,8.1,7.9c21.1-0.4,41.9-3.2,62.3-8.3C329.5,119.4,338.7,116,348,113.1z M347.6,400
	c0.1-0.7,0.1-1.4,0.2-2.2c-7.2-2.1-14.3-4.4-21.5-6.4c-21-5.8-42.4-9.7-64.2-10c-13.9-0.2-12.2-2-12.6,12.3c-0.2,5.3,1.7,7,6.9,6.9
	c28.7-0.2,57.3-0.1,86-0.1C344.1,400.5,345.9,400.2,347.6,400z"/>
</svg>
